<?xml version="1.0" encoding="utf-8"?>
<!-- Generator: Adobe Illustrator 18.0.0, SVG Export Plug-In . SVG Version: 6.00 Build 0)  -->
<!DOCTYPE svg PUBLIC "-//W3C//DTD SVG 1.1//EN" "http://www.w3.org/Graphics/SVG/1.1/DTD/svg11.dtd">
<svg version="1.1" id="Слой_1" xmlns="http://www.w3.org/2000/svg" xmlns:xlink="http://www.w3.org/1999/xlink" x="0px" y="0px"
	 viewBox="0 0 60 60" enable-background="new 0 0 60 60" xml:space="preserve">
<g>
	<linearGradient id="SVGID_1_" gradientUnits="userSpaceOnUse" x1="13.7752" y1="14.7131" x2="27.9573" y2="14.7131">
		<stop  offset="0" style="stop-color:#7AC6BC"/>
		<stop  offset="1" style="stop-color:#3AB5A7"/>
	</linearGradient>
	<path fill="url(#SVGID_1_)" d="M16.4,11.5c-2.7,5-3.4,11-1.8,16.5h0.2H15C15.9,21.3,21.2,16,28,15.1V1.4
		C23.1,3.3,18.9,6.9,16.4,11.5z"/>
	<linearGradient id="SVGID_2_" gradientUnits="userSpaceOnUse" x1="13.9377" y1="28.0392" x2="13.9377" y2="3.886561e-005">
		<stop  offset="0" style="stop-color:#00A79E"/>
		<stop  offset="1" style="stop-color:#00998E"/>
	</linearGradient>
	<path fill="url(#SVGID_2_)" d="M15.6,11.1c2.7-5,7.1-8.8,12.4-10.7V0.2V0c-15,1-27.1,13-28,28h13.7C12,22.3,12.8,16.3,15.6,11.1z"
		/>
	<linearGradient id="SVGID_3_" gradientUnits="userSpaceOnUse" x1="20.3716" y1="28.0392" x2="20.3716" y2="0.3349">
		<stop  offset="0" style="stop-color:#B8DED8"/>
		<stop  offset="0.5" style="stop-color:#8BCCC3"/>
	</linearGradient>
	<path fill="url(#SVGID_3_)" d="M16.4,11.5C18.9,6.9,23.1,3.3,28,1.4V0.3c-5.3,1.9-9.7,5.7-12.4,10.7c-2.8,5.2-3.5,11.3-2,17h1
		C13.1,22.5,13.7,16.6,16.4,11.5z"/>
	<linearGradient id="SVGID_4_" gradientUnits="userSpaceOnUse" x1="45.2049" y1="28.0393" x2="45.2049" y2="13.8571">
		<stop  offset="0" style="stop-color:#EF776A"/>
		<stop  offset="1" style="stop-color:#F39A83"/>
	</linearGradient>
	<path fill="url(#SVGID_4_)" d="M48.4,16.5c-5-2.7-11-3.4-16.5-1.8v0.2v0.2C38.6,16,43.9,21.3,44.8,28h13.7
		C56.6,23.2,53,19,48.4,16.5z"/>
	<linearGradient id="SVGID_5_" gradientUnits="userSpaceOnUse" x1="31.8789" y1="14.0197" x2="59.918" y2="14.0197">
		<stop  offset="0" style="stop-color:#E84136"/>
		<stop  offset="1" style="stop-color:#E4051F"/>
	</linearGradient>
	<path fill="url(#SVGID_5_)" d="M48.9,15.7c5,2.7,8.8,7.1,10.7,12.4h0.1h0.2c-1-15-13-27.1-28-28v13.7
		C37.6,12.1,43.6,12.8,48.9,15.7z"/>
	<linearGradient id="SVGID_6_" gradientUnits="userSpaceOnUse" x1="31.8789" y1="20.4535" x2="59.5832" y2="20.4535">
		<stop  offset="0" style="stop-color:#F9C5B4"/>
		<stop  offset="0.5" style="stop-color:#F5A58F"/>
	</linearGradient>
	<path fill="url(#SVGID_6_)" d="M48.4,16.5C53,19,56.6,23.2,58.5,28h1.1c-1.9-5.3-5.7-9.7-10.7-12.4c-5.2-2.8-11.3-3.5-17-2v1
		C37.4,13.1,43.4,13.8,48.4,16.5z"/>
	<linearGradient id="SVGID_7_" gradientUnits="userSpaceOnUse" x1="14.6312" y1="46.1429" x2="14.6312" y2="31.9607">
		<stop  offset="0" style="stop-color:#F39A83"/>
		<stop  offset="1" style="stop-color:#EF776A"/>
	</linearGradient>
	<path fill="url(#SVGID_7_)" d="M11.4,43.5c5,2.7,11,3.4,16.5,1.8v-0.2v-0.2C21.2,44,15.9,38.7,15,32H1.3C3.2,36.8,6.8,41,11.4,43.5
		z"/>
	<linearGradient id="SVGID_8_" gradientUnits="userSpaceOnUse" x1="-8.195274e-002" y1="45.9803" x2="27.9572" y2="45.9803">
		<stop  offset="0" style="stop-color:#E4051F"/>
		<stop  offset="1" style="stop-color:#E84136"/>
	</linearGradient>
	<path fill="url(#SVGID_8_)" d="M11,44.3C6,41.7,2.2,37.2,0.3,32H0.1h-0.2c1,15,13,27.1,28,28V46.3C22.3,47.9,16.2,47.2,11,44.3z"/>
	<linearGradient id="SVGID_9_" gradientUnits="userSpaceOnUse" x1="0.2529" y1="39.5464" x2="27.9572" y2="39.5464">
		<stop  offset="0.5" style="stop-color:#F5A58F"/>
		<stop  offset="1" style="stop-color:#F9C5B4"/>
	</linearGradient>
	<path fill="url(#SVGID_9_)" d="M11.4,43.5C6.8,41,3.2,36.8,1.3,32H0.3C2.2,37.2,6,41.7,11,44.3c5.2,2.8,11.3,3.5,17,2v-1
		C22.5,46.9,16.5,46.2,11.4,43.5z"/>
	<linearGradient id="SVGID_10_" gradientUnits="userSpaceOnUse" x1="45.8985" y1="60" x2="45.8985" y2="31.9607">
		<stop  offset="0" style="stop-color:#00998E"/>
		<stop  offset="1" style="stop-color:#00A79E"/>
	</linearGradient>
	<path fill="url(#SVGID_10_)" d="M45.6,32c1.2,10.8-4.2,23.3-13.8,27.6V60c15-1,27.1-13,28-28H45.6z"/>
	<linearGradient id="SVGID_11_" gradientUnits="userSpaceOnUse" x1="31.8789" y1="45.2138" x2="44.829" y2="45.2138">
		<stop  offset="0" style="stop-color:#3AB5A7"/>
		<stop  offset="1" style="stop-color:#7AC6BC"/>
	</linearGradient>
	<path fill="url(#SVGID_11_)" d="M31.9,58.5c4-1.9,7.5-5.5,9.9-10.3c2.5-5,3.5-10.9,2.9-16.2H31.9V58.5z"/>
	<linearGradient id="SVGID_12_" gradientUnits="userSpaceOnUse" x1="38.8457" y1="59.5486" x2="38.8457" y2="31.9607">
		<stop  offset="0.5" style="stop-color:#8BCCC3"/>
		<stop  offset="1" style="stop-color:#B8DED8"/>
	</linearGradient>
	<path fill="url(#SVGID_12_)" d="M45.6,32h-1c0.6,5.3-0.4,11.2-2.9,16.2c-2.4,4.8-5.8,8.4-9.9,10.3v1.1C41.5,55.2,46.9,42.8,45.6,32
		z"/>
	<path fill="none" d="M29.9,30"/>
</g>
</svg>
